<svg fill="#4B4DBE" xmlns="http://www.w3.org/2000/svg" xmlns:xlink="http://www.w3.org/1999/xlink" version="1.1" x="0px" y="0px" viewBox="0 0 100 100" enable-background="new 0 0 100 100" xml:space="preserve"><g><g><g><rect x="5" y="27.878" width="3.597" height="3.596"></rect><rect x="10.082" y="27.878" width="3.598" height="3.596"></rect><rect x="15.165" y="27.878" width="3.598" height="3.596"></rect><rect x="20.248" y="27.878" width="3.597" height="3.596"></rect><rect x="25.331" y="27.878" width="3.597" height="3.596"></rect><rect x="30.413" y="27.878" width="3.597" height="3.596"></rect><rect x="35.496" y="27.878" width="3.597" height="3.596"></rect><rect x="40.578" y="27.878" width="3.598" height="3.596"></rect><rect x="45.661" y="27.878" width="3.598" height="3.596"></rect><rect x="50.743" y="27.878" width="3.598" height="3.596"></rect><rect x="55.825" y="27.878" width="3.598" height="3.596"></rect></g><g><rect x="10.082" y="32.959" width="3.598" height="3.596"></rect><rect x="15.165" y="32.959" width="3.598" height="3.596"></rect><rect x="20.248" y="32.959" width="3.597" height="3.596"></rect><rect x="25.331" y="32.959" width="3.597" height="3.596"></rect><rect x="30.413" y="32.959" width="3.597" height="3.596"></rect><rect x="35.496" y="32.959" width="3.597" height="3.596"></rect><rect x="40.578" y="32.959" width="3.598" height="3.596"></rect><rect x="45.661" y="32.959" width="3.598" height="3.596"></rect><rect x="50.743" y="32.959" width="3.598" height="3.596"></rect><rect x="55.825" y="32.959" width="3.598" height="3.596"></rect><rect x="60.907" y="32.959" width="3.598" height="3.596"></rect><rect x="65.991" y="32.959" width="3.597" height="3.596"></rect><rect x="91.402" y="32.959" width="3.598" height="3.596"></rect></g><g><rect x="10.082" y="38.04" width="3.598" height="3.595"></rect><rect x="15.165" y="38.04" width="3.598" height="3.595"></rect><rect x="20.248" y="38.04" width="3.597" height="3.595"></rect><rect x="25.331" y="38.04" width="3.597" height="3.595"></rect><rect x="30.413" y="38.04" width="3.597" height="3.595"></rect><rect x="35.496" y="38.04" width="3.597" height="3.595"></rect><rect x="40.578" y="38.04" width="3.598" height="3.595"></rect><rect x="45.661" y="38.04" width="3.598" height="3.595"></rect><rect x="50.743" y="38.04" width="3.598" height="3.595"></rect><rect x="55.825" y="38.04" width="3.598" height="3.595"></rect><rect x="60.907" y="38.04" width="3.598" height="3.595"></rect><rect x="65.991" y="38.04" width="3.597" height="3.595"></rect><rect x="81.236" y="38.04" width="3.6" height="3.595"></rect><rect x="86.32" y="38.04" width="3.598" height="3.595"></rect><rect x="91.402" y="38.04" width="3.598" height="3.595"></rect></g><g><rect x="10.082" y="43.121" width="3.598" height="3.595"></rect><rect x="15.165" y="43.121" width="3.598" height="3.595"></rect><rect x="20.248" y="43.121" width="3.597" height="3.595"></rect><rect x="25.331" y="43.121" width="3.597" height="3.595"></rect><rect x="30.413" y="43.121" width="3.597" height="3.595"></rect><rect x="35.496" y="43.121" width="3.597" height="3.595"></rect><rect x="40.578" y="43.121" width="3.598" height="3.595"></rect><rect x="45.661" y="43.121" width="3.598" height="3.595"></rect><rect x="50.743" y="43.121" width="3.598" height="3.595"></rect><rect x="55.825" y="43.121" width="3.598" height="3.595"></rect><rect x="60.907" y="43.121" width="3.598" height="3.595"></rect><rect x="65.991" y="43.121" width="3.597" height="3.595"></rect><rect x="71.073" y="43.121" width="3.597" height="3.595"></rect><rect x="76.154" y="43.121" width="3.598" height="3.595"></rect><rect x="81.236" y="43.121" width="3.6" height="3.595"></rect><rect x="86.32" y="43.121" width="3.598" height="3.595"></rect></g><g><rect x="10.082" y="48.202" width="3.598" height="3.596"></rect><rect x="15.165" y="48.202" width="3.598" height="3.596"></rect><rect x="20.248" y="48.202" width="3.597" height="3.596"></rect><rect x="25.331" y="48.202" width="3.597" height="3.596"></rect><rect x="30.413" y="48.202" width="3.597" height="3.596"></rect><rect x="35.496" y="48.202" width="3.597" height="3.596"></rect><rect x="40.578" y="48.202" width="3.598" height="3.596"></rect><rect x="45.661" y="48.202" width="3.598" height="3.596"></rect><rect x="50.743" y="48.202" width="3.598" height="3.596"></rect><rect x="55.825" y="48.202" width="3.598" height="3.596"></rect><rect x="60.907" y="48.202" width="3.598" height="3.596"></rect><rect x="65.991" y="48.202" width="3.597" height="3.596"></rect><rect x="71.073" y="48.202" width="3.597" height="3.596"></rect><rect x="76.154" y="48.202" width="3.598" height="3.596"></rect><rect x="81.236" y="48.202" width="3.6" height="3.596"></rect></g><g><rect x="15.165" y="53.284" width="3.598" height="3.596"></rect><rect x="20.248" y="53.284" width="3.597" height="3.596"></rect><rect x="25.331" y="53.284" width="3.597" height="3.596"></rect><rect x="30.413" y="53.284" width="3.597" height="3.596"></rect><rect x="35.496" y="53.284" width="3.597" height="3.596"></rect><rect x="40.578" y="53.284" width="3.598" height="3.596"></rect><rect x="45.661" y="53.284" width="3.598" height="3.596"></rect><rect x="50.743" y="53.284" width="3.598" height="3.596"></rect><rect x="55.825" y="53.284" width="3.598" height="3.596"></rect><rect x="60.907" y="53.284" width="3.598" height="3.596"></rect><rect x="65.991" y="53.284" width="3.597" height="3.596"></rect><rect x="71.073" y="53.284" width="3.597" height="3.596"></rect><rect x="76.154" y="53.284" width="3.598" height="3.596"></rect><rect x="81.236" y="53.284" width="3.6" height="3.596"></rect></g><g><rect x="20.248" y="58.364" width="3.597" height="3.596"></rect><rect x="25.331" y="58.364" width="3.597" height="3.596"></rect><rect x="30.413" y="58.364" width="3.597" height="3.596"></rect><rect x="35.496" y="58.364" width="3.597" height="3.596"></rect><rect x="40.578" y="58.364" width="3.598" height="3.596"></rect><rect x="45.661" y="58.364" width="3.598" height="3.596"></rect><rect x="50.743" y="58.364" width="3.598" height="3.596"></rect><rect x="55.825" y="58.364" width="3.598" height="3.596"></rect><rect x="60.907" y="58.364" width="3.598" height="3.596"></rect><rect x="65.991" y="58.364" width="3.597" height="3.596"></rect><rect x="71.073" y="58.364" width="3.597" height="3.596"></rect><rect x="76.154" y="58.364" width="3.598" height="3.596"></rect></g><g><rect x="35.496" y="63.443" width="3.597" height="3.599"></rect><rect x="40.578" y="63.443" width="3.598" height="3.599"></rect><rect x="45.661" y="63.443" width="3.598" height="3.599"></rect><rect x="50.743" y="63.443" width="3.598" height="3.599"></rect><rect x="55.825" y="63.443" width="3.598" height="3.599"></rect><rect x="60.907" y="63.443" width="3.598" height="3.599"></rect><rect x="71.073" y="63.443" width="3.597" height="3.599"></rect></g><g><rect x="45.661" y="68.525" width="3.598" height="3.597"></rect><rect x="71.073" y="68.525" width="3.597" height="3.597"></rect></g></g></g></svg>